<svg xmlns="http://www.w3.org/2000/svg" viewBox="0 0 64 64" width="64" height="64">  <!-- Python-inspired dual snake shape (simplified for favicon clarity) -->  <!-- Blue half (top-left snake) -->  <path d="M32 4C18.5 4 19 10.5 19 10.5L19 18H33V20H12S4 19.2 4 32C4 44.8 10.8 44 10.8 44H17V36.5S16.6 30 23.5 30H40.5S47 30.2 47 24V11S47.8 4 32 4Z" fill="#3776AB"/>  <!-- Blue snake eye -->  <circle cx="25" cy="13" r="2.5" fill="#fff"/>  <!-- Yellow half (bottom-right snake) -->  <path d="M32 60C45.5 60 45 53.5 45 53.5L45 46H31V44H52S60 44.8 60 32C60 19.2 53.2 20 53.2 20H47V27.5S47.4 34 40.5 34H23.5S17 33.8 17 40V53S16.2 60 32 60Z" fill="#FFD43B"/>  <!-- Yellow snake eye -->  <circle cx="39" cy="51" r="2.5" fill="#fff"/>  <!-- "jd+" badge - compact, bottom-right so Python logo stays visible -->  <rect x="22" y="42" width="40" height="20" rx="4" fill="#1a1a2e" stroke="#FFD43B" stroke-width="1.5"/>  <text x="42" y="57" text-anchor="middle"        font-family="'Arial Black','Helvetica Neue',Arial,sans-serif"        font-weight="900" font-size="17" fill="#FFD43B"        letter-spacing="0.5"        paint-order="stroke" stroke="#1a1a2e" stroke-width="0.5">jd+</text></svg>